<svg width="1080" height="670" viewBox="0 0 1080 670" fill="none" xmlns="http://www.w3.org/2000/svg">
<path d="M400.199 1.06152C427.288 4.24849 450.66 15.4029 470.312 35.0557C481.467 46.21 490.496 58.9585 496.339 73.2998C502.182 87.641 504.838 102.514 504.838 118.448C504.838 141.288 498.995 161.472 487.841 180.062C489.434 181.656 491.028 182.718 492.621 184.312C494.214 185.905 495.808 187.498 497.401 189.092C508.556 200.246 517.585 212.994 523.428 227.335C529.27 241.676 532.458 256.549 532.458 272.483C532.458 288.418 529.27 303.291 523.428 317.632C517.585 331.973 508.556 345.253 497.401 356.407C486.247 367.561 473.499 376.591 459.158 382.434C444.817 388.276 429.944 391.463 414.01 391.463V390.933H28.3887V84H111.249V154.035H389.576C398.606 153.504 406.573 149.786 412.947 142.881C418.79 135.976 421.976 128.009 421.977 118.448C421.977 108.356 418.79 99.8572 411.885 92.9521C404.98 86.0473 396.481 82.8604 386.39 82.8604H112V0H400.199V1.06152ZM933.798 1.06152C949.733 1.06153 964.605 3.71782 978.946 9.56055C993.287 15.4032 1006.04 24.4327 1017.19 35.5869C1028.34 46.7412 1037.37 59.4898 1043.22 73.8311C1049.06 88.1722 1051.71 103.045 1051.71 118.979V131.727H968.854V118.979C968.854 109.419 965.668 100.92 958.763 94.0146C951.858 87.1096 943.89 83.9229 933.798 83.9229H680.967C670.875 83.9229 662.907 87.1096 656.002 94.0146C649.097 100.92 645.379 109.419 645.379 118.979C645.379 129.071 649.097 137.038 656.002 143.943C662.907 150.848 670.875 154.566 680.436 154.566H933.798C949.733 154.566 964.605 157.223 978.946 163.065C993.287 168.908 1006.04 177.938 1017.19 189.092C1028.34 200.246 1037.37 212.994 1043.22 227.335C1049.06 241.676 1051.71 256.549 1051.71 272.483C1051.71 288.418 1049.06 303.291 1043.22 317.632C1037.37 331.973 1028.34 345.253 1017.19 356.407C1006.04 367.561 993.287 376.06 978.946 381.902C964.605 387.745 949.733 390.933 933.798 390.933H878.429V341.262H679.718V390.928C664.054 390.834 649.413 387.657 635.287 381.902C620.946 376.06 608.197 367.562 597.043 356.407C585.889 345.253 577.391 332.504 571.548 318.163C565.705 303.822 562.518 288.949 562.518 273.015V260.268H645.379V273.015C645.379 282.575 649.097 290.543 656.002 297.448C662.907 304.353 670.875 308.071 680.436 308.071H933.798C943.89 308.071 951.858 304.353 958.763 297.448C965.668 290.543 968.854 282.575 968.854 272.483C968.854 262.923 965.667 254.424 958.763 247.52C951.858 240.614 943.359 237.428 933.798 237.428H680.967C665.032 237.428 650.16 234.24 635.818 228.397C621.477 222.555 608.197 214.057 597.043 202.902C585.889 191.748 577.391 178.469 571.548 164.128C565.705 149.787 562.518 134.914 562.518 118.979C562.518 103.045 565.705 88.1722 571.548 73.8311C577.391 59.4898 585.889 46.7412 597.043 35.5869C608.197 24.4326 621.477 15.4033 635.818 9.56055C650.16 3.71791 665.032 1.06152 680.967 1.06152H933.798ZM111.249 308.071H414.01V308.603C424.102 308.602 432.6 304.884 439.505 297.979C446.41 291.074 449.597 282.575 449.597 272.483C449.597 262.392 446.41 253.893 439.505 246.988C432.6 240.083 424.102 236.897 414.01 236.896H111.249V308.071Z" fill="url(#paint0_linear_14_10)"/>
<path d="M288.814 666.154C286.742 666.154 285.499 664.911 285.499 662.839V529.828C285.499 491.706 277.626 480.518 244.891 480.518C222.93 480.518 203.454 485.49 183.15 496.264C185.222 504.551 186.051 514.082 186.051 525.27V662.839C186.051 664.911 184.808 666.154 182.736 666.154H162.432C160.36 666.154 159.117 664.911 159.117 662.839V529.828C159.117 491.706 151.244 480.518 118.509 480.518C96.962 480.518 77.9011 485.49 58.0115 495.435V662.839C58.0115 664.911 56.7684 666.154 54.6966 666.154H34.3926C32.3207 666.154 31.0776 664.911 31.0776 662.839V462.286C31.0776 460.214 32.3207 458.971 34.3926 458.971H45.9949C47.6523 458.971 48.4811 458.971 49.7242 461.043L57.5971 473.474C79.973 461.457 101.52 455.656 124.31 455.656C149.587 455.656 166.161 462.7 176.106 478.032C201.383 462.7 225.416 455.656 250.692 455.656C293.786 455.656 312.433 475.96 312.433 525.27V662.839C312.433 664.911 311.19 666.154 309.118 666.154H288.814Z" fill="white"/>
<path d="M449.265 669.469C389.181 669.469 368.463 647.094 368.463 601.513V523.612C368.463 478.032 389.181 455.656 449.265 455.656H451.751C511.834 455.656 532.138 478.032 532.138 523.612V565.049C532.138 567.121 530.895 568.364 528.823 568.364H395.397V601.513C395.397 632.176 405.756 644.607 449.265 644.607H451.751C495.26 644.607 505.619 632.176 505.619 602.342V601.513C505.619 599.441 506.862 598.198 508.934 598.198H528.823C530.895 598.198 532.138 599.441 532.138 601.513V602.342C532.138 647.094 511.834 669.469 451.751 669.469H449.265ZM395.397 545.159H505.619V523.612C505.619 492.949 495.26 480.518 451.751 480.518H449.265C405.756 480.518 395.397 492.949 395.397 523.612V545.159Z" fill="white"/>
<path d="M731.255 666.154C729.597 666.154 728.768 666.154 727.525 664.083L719.652 651.652C698.519 662.839 675.729 669.469 649.21 669.469C602.386 669.469 583.74 649.165 583.74 599.856V525.27C583.74 475.96 602.386 455.656 649.21 455.656C675.315 455.656 698.105 462.286 719.238 473.059V379.412C719.238 377.34 720.481 376.097 722.553 376.097H742.857C744.929 376.097 746.172 377.34 746.172 379.412V662.839C746.172 664.911 744.929 666.154 742.857 666.154H731.255ZM610.674 595.298C610.674 633.419 618.547 644.607 654.597 644.607C679.044 644.607 698.934 639.635 719.238 629.69V495.435C698.934 485.49 679.044 480.518 654.597 480.518C618.547 480.518 610.674 491.706 610.674 529.828V595.298Z" fill="white"/>
<path d="M811.736 666.154C809.664 666.154 808.421 664.911 808.421 662.839V462.286C808.421 460.214 809.664 458.971 811.736 458.971H832.04C834.111 458.971 835.355 460.214 835.355 462.286V662.839C835.355 664.911 834.111 666.154 832.04 666.154H811.736ZM808.421 420.849V386.871C808.421 384.799 809.664 383.556 811.736 383.556H832.04C834.111 383.556 835.355 384.799 835.355 386.871V420.849C835.355 422.921 834.111 424.164 832.04 424.164H811.736C809.664 424.164 808.421 422.921 808.421 420.849Z" fill="white"/>
<path d="M1035.84 666.154C1034.19 666.154 1033.36 666.154 1032.11 664.083L1024.24 651.237C1002.69 664.083 981.147 669.469 956.699 669.469C909.047 669.469 887.086 649.58 887.086 611.458V605.657C887.086 568.364 905.732 550.546 955.042 550.546H1023.83V522.369C1023.83 492.949 1013.47 480.518 973.688 480.518H971.202C931.423 480.518 921.064 492.949 921.064 521.54V522.369C921.064 524.441 919.821 525.684 917.749 525.684H897.859C895.787 525.684 894.544 524.441 894.544 522.369V521.54C894.544 478.032 914.848 455.656 971.202 455.656H973.688C1030.04 455.656 1050.76 478.032 1050.76 522.369V662.839C1050.76 664.911 1049.52 666.154 1047.45 666.154H1035.84ZM914.02 611.458C914.02 635.077 924.793 645.85 959.186 645.85C982.39 645.85 1003.11 640.878 1023.83 629.276V573.751H952.97C923.55 573.751 914.02 582.867 914.02 605.657V611.458Z" fill="white"/>
<defs>
<linearGradient id="paint0_linear_14_10" x1="4.49884" y1="391.463" x2="931.277" y2="-105.205" gradientUnits="userSpaceOnUse">
<stop stop-color="#D0FF00"/>
<stop offset="1" stop-color="#58FF42"/>
</linearGradient>
</defs>
</svg>
