<?xml version="1.0" encoding="UTF-8"?>
<!DOCTYPE svg PUBLIC "-//W3C//DTD SVG 1.1//EN" "http://www.w3.org/Graphics/SVG/1.1/DTD/svg11.dtd">
<!-- Creator: CorelDRAW (Versão OEM) -->
<svg xmlns="http://www.w3.org/2000/svg" xml:space="preserve" width="112.968mm" height="34.9509mm" version="1.1" style="shape-rendering:geometricPrecision; text-rendering:geometricPrecision; image-rendering:optimizeQuality; fill-rule:evenodd; clip-rule:evenodd"
viewBox="0 0 11282.56 3490.69"
 xmlns:xlink="http://www.w3.org/1999/xlink"
 xmlns:xodm="http://www.corel.com/coreldraw/odm/2003">
 <defs>
  <style type="text/css">
   <![CDATA[
    .fil1 {fill:yellow}
    .fil0 {fill:#FEFEFE;fill-rule:nonzero}
   ]]>
  </style>
 </defs>
 <g id="Camada_x0020_1">
  <metadata id="CorelCorpID_0Corel-Layer"/>
  <g id="_2106078354640">
   <path class="fil0" d="M6954.33 2597.51c-118.37,0 -220.19,-27.51 -305.47,-82.53 -85.28,-55.01 -147.61,-134.2 -186.96,-237.55l-19.49 275.06 -190.05 0 129.37 -1825.42 240.06 0 -51.04 720.16c56.63,-93.35 129.04,-162.53 217.26,-207.55 88.21,-45.01 184,-67.51 287.35,-67.51 128.37,0 237.87,30.84 328.52,92.52 90.66,61.67 158.99,144.2 205.01,247.56 46.02,103.35 64.54,218.37 55.56,345.07l-3.19 45.01c-8.86,125.02 -44.55,240.47 -107.06,346.32 -62.51,105.86 -145.19,190.47 -248.04,253.81 -102.85,63.35 -220.12,95.03 -351.82,95.03zm-12.62 -210.06c90.02,0 169.92,-21.66 239.67,-65.01 69.75,-43.35 125.65,-102.94 167.7,-178.79 42.06,-75.85 66.63,-163.79 73.72,-263.82 10.63,-150.03 -21.67,-270.47 -96.92,-361.33 -75.26,-90.86 -179.55,-136.28 -312.92,-136.28 -80.02,0 -155.47,17.92 -226.36,53.76 -70.9,35.84 -129.15,87.52 -174.78,155.03 -45.62,67.52 -71.81,148.79 -78.54,243.81l-8.15 115.02c-6.5,91.68 8.78,170.04 45.85,235.05 37.07,65.02 88.55,115.02 154.41,150.03 65.87,35.02 137.98,52.51 216.33,52.51zm1518.61 210.06c-116.7,0 -216.14,-20.01 -298.31,-60.02 -82.2,-40 -147.62,-92.93 -196.3,-158.78 -48.68,-65.85 -83.05,-139.61 -103.09,-221.3 -20.04,-81.69 -27.07,-165.04 -21.03,-250.06l3.19 -45c6.14,-86.69 25.03,-170.87 56.66,-252.56 31.63,-81.69 76.44,-155.44 134.46,-221.3 58.01,-65.85 129.67,-118.36 214.96,-157.53 85.3,-39.18 183.8,-58.77 295.49,-58.77 145.04,0 262.42,31.26 352.18,93.77 89.77,62.52 154.09,142.95 192.96,241.31 38.87,98.36 54.35,203.38 46.43,315.07l-7.62 107.52 -1060.24 0c-1,131.69 30.44,240.89 94.31,327.58 63.88,86.69 167.49,130.03 310.86,130.03 105.03,0 192.11,-23.33 261.28,-70.01 69.14,-46.68 112.58,-100.85 130.29,-162.54l225.06 0c-38.14,138.38 -113.34,246.73 -225.59,325.08 -112.25,78.35 -247.55,117.53 -405.92,117.53zm71.12 -1215.29c-120.03,0 -216.61,33.76 -289.74,101.28 -73.13,67.5 -122.77,156.28 -148.89,266.3l815.18 0c-6.97,-113.36 -41.47,-202.96 -103.48,-268.81 -62.02,-65.85 -153.04,-98.78 -273.07,-98.78zm1334.48 1185.27c-100.02,0 -185.3,-14.17 -255.81,-42.51 -70.5,-28.34 -122.89,-77.1 -157.16,-146.29 -34.28,-69.18 -47.22,-162.95 -38.83,-281.32l49.62 -700.17 -230.05 0 12.76 -180.04 230.05 0 28.7 -405.09 230.06 0 -28.7 405.09 460.1 0 -12.75 180.04 -460.11 0 -51.74 730.17c-5.08,71.69 10.58,127.11 46.97,166.29 36.39,39.17 90.45,58.77 162.14,58.77l235.05 0 -15.25 215.05 -205.04 0zm381.79 -15l18.97 -267.56 773.27 -855.19 -13.41 -22.51 -707.67 0 13.47 -190.04 950.22 0 -18.97 267.56 -775.95 857.7 16.08 20 737.67 0 -13.46 190.04 -980.22 0z"/>
   <path class="fil0" d="M2372.62 3477.94l-142.51 -516.91 71.51 0 122.86 454.6 26.2 0 174.55 -454.6 69.39 0 -203.03 516.91 -118.96 0zm532.77 -439.02c-15.1,0 -26.04,-4.01 -32.78,-12.03 -6.75,-8.03 -9.69,-18.18 -8.82,-30.45 0.87,-12.27 5.24,-22.42 13.13,-30.44 7.88,-8.03 19.38,-12.04 34.48,-12.04 15.11,0 26.04,4.01 32.79,12.04 6.74,8.02 9.69,18.17 8.82,30.44 -0.87,12.27 -5.25,22.42 -13.13,30.45 -7.89,8.02 -19.38,12.03 -34.49,12.03zm-50.24 439.02l22.99 -324.3 -58.07 0 3.81 -53.82 126.04 0 -26.8 378.12 -67.97 0zm382.7 0l-102.07 -378.12 70.8 0 85.36 324.31 14.87 0 117.15 -324.31 66.56 0 -138.67 378.12 -114.01 0zm518.66 9.92c-42.97,0 -75.83,-10.75 -98.62,-32.22 -22.8,-21.48 -32.81,-51.81 -30.03,-91 2.85,-40.12 18.45,-70.45 46.81,-90.99 28.37,-20.53 67.09,-30.8 116.18,-30.8l95.59 0 0.66 -9.21c3.72,-52.39 -20.87,-78.59 -73.74,-78.59 -21.71,0 -44.4,0.47 -68.07,1.41 -23.67,0.95 -43.33,1.89 -58.98,2.84l4.21 -59.48c15.2,-1.41 32.16,-2.48 50.86,-3.19 18.7,-0.7 36.54,-1.06 53.54,-1.06 58.07,0 99.67,10.63 124.83,31.86 25.18,21.24 35.88,58.31 32.14,111.17l-16.97 239.34 -53.81 0 5.32 -75.06c-21.01,56.65 -64.33,84.97 -129.94,84.97zm17.97 -53.82c16.06,0 31.61,-2.95 46.66,-8.85 15.04,-5.9 27.9,-15.81 38.57,-29.74 10.66,-13.92 17.34,-33.16 20.01,-57.71l3.12 -43.89 -98.43 0c-27.38,0 -48.85,6.6 -64.42,19.82 -15.58,13.21 -24.09,30.21 -25.57,50.98 -1.47,20.77 4.65,37.53 18.39,50.28 13.73,12.74 34.29,19.12 61.66,19.12zm652.92 53.82c-42.97,0 -75.83,-10.75 -98.62,-32.22 -22.8,-21.48 -32.81,-51.81 -30.03,-91 2.85,-40.12 18.45,-70.45 46.81,-90.99 28.37,-20.53 67.09,-30.8 116.18,-30.8l95.59 0 0.66 -9.21c3.72,-52.39 -20.87,-78.59 -73.74,-78.59 -21.71,0 -44.4,0.47 -68.07,1.41 -23.67,0.95 -43.33,1.89 -58.98,2.84l4.21 -59.48c15.2,-1.41 32.16,-2.48 50.86,-3.19 18.7,-0.7 36.54,-1.06 53.54,-1.06 58.07,0 99.67,10.63 124.83,31.86 25.18,21.24 35.88,58.31 32.14,111.17l-16.97 239.34 -53.81 0 5.32 -75.06c-21.01,56.65 -64.33,84.97 -129.94,84.97zm17.97 -53.82c16.06,0 31.61,-2.95 46.66,-8.85 15.04,-5.9 27.9,-15.81 38.57,-29.74 10.66,-13.92 17.34,-33.16 20.01,-57.71l3.12 -43.89 -98.43 0c-27.38,0 -48.85,6.6 -64.42,19.82 -15.58,13.21 -24.09,30.21 -25.57,50.98 -1.47,20.77 4.65,37.53 18.39,50.28 13.73,12.74 34.29,19.12 61.66,19.12zm705.82 56.65c-35.87,0 -67.25,-8.73 -94.09,-26.2 -26.85,-17.47 -47.26,-40.95 -61.21,-70.45 -13.96,-29.5 -19.65,-62.43 -17.07,-98.79l0.9 -12.74c2.55,-35.87 12.65,-68.56 30.31,-98.07 17.67,-29.5 40.94,-53.11 69.8,-70.81 28.88,-17.7 61.49,-26.56 97.84,-26.56 27.85,0 53.06,5.66 75.62,17 22.56,11.33 40.31,29.03 53.23,53.1l13.9 -196.14 67.97 0 -36.63 516.91 -53.81 0 5.52 -77.89c-16.91,32.1 -38.97,55.23 -66.17,69.39 -27.21,14.16 -55.91,21.24 -86.12,21.24zm13.42 -59.47c23.13,0 44.5,-5.19 64.11,-15.58 19.63,-10.39 35.8,-25.38 48.51,-44.96 12.72,-19.6 20.01,-42.61 21.88,-69.04l2.32 -32.57c1.84,-25.97 -2.39,-48.03 -12.66,-66.21 -10.28,-18.18 -24.63,-32.1 -43.06,-41.78 -18.44,-9.68 -38.98,-14.51 -61.63,-14.51 -37.77,0 -69.25,12.98 -94.47,38.94 -25.2,25.97 -39.32,60.42 -42.37,103.38 -2.04,28.79 1.6,53.93 10.95,75.41 9.33,21.47 23.26,38 41.8,49.57 18.54,11.57 40.08,17.35 64.63,17.35zm488.38 -392.29c-15.1,0 -26.04,-4.01 -32.78,-12.03 -6.75,-8.03 -9.69,-18.18 -8.82,-30.45 0.87,-12.27 5.24,-22.42 13.13,-30.44 7.88,-8.03 19.38,-12.04 34.48,-12.04 15.11,0 26.04,4.01 32.79,12.04 6.74,8.02 9.69,18.17 8.82,30.44 -0.87,12.27 -5.25,22.42 -13.13,30.45 -7.89,8.02 -19.38,12.03 -34.49,12.03zm-50.24 439.02l22.99 -324.3 -58.07 0 3.81 -53.82 126.04 0 -26.8 378.12 -67.97 0zm382.7 0l-102.07 -378.12 70.8 0 85.36 324.31 14.87 0 117.15 -324.31 66.56 0 -138.67 378.12 -114.01 0zm570.14 12.74c-33.04,0 -61.2,-5.66 -84.47,-16.99 -23.27,-11.34 -41.8,-26.32 -55.59,-44.96 -13.77,-18.65 -23.51,-39.54 -29.18,-62.67 -5.68,-23.13 -7.66,-46.73 -5.95,-70.81l0.9 -12.74c1.74,-24.55 7.08,-48.39 16.05,-71.52 8.95,-23.13 21.64,-44.01 38.06,-62.66 16.44,-18.65 36.72,-33.52 60.87,-44.61 24.15,-11.09 52.04,-16.64 83.67,-16.64 41.07,0 74.31,8.86 99.72,26.56 25.42,17.7 43.63,40.48 54.64,68.33 11.01,27.84 15.39,57.59 13.14,89.22l-2.16 30.44 -300.23 0c-0.27,37.29 8.62,68.21 26.72,92.76 18.09,24.55 47.43,36.82 88.02,36.82 29.74,0 54.41,-6.61 74,-19.82 19.57,-13.22 31.87,-28.56 36.88,-46.03l63.73 0c-10.81,39.18 -32.1,69.86 -63.88,92.05 -31.78,22.18 -70.09,33.28 -114.95,33.28zm20.14 -344.13c-33.99,0 -61.34,9.56 -82.05,28.67 -20.7,19.12 -34.77,44.25 -42.17,75.41l230.84 0c-1.98,-32.1 -11.75,-57.48 -29.3,-76.12 -17.56,-18.65 -43.34,-27.96 -77.32,-27.96zm355.67 331.38l26.8 -378.12 53.81 0 -8.03 113.3c8.55,-40.6 25.53,-70.33 50.94,-89.22 25.42,-18.89 58.9,-28.32 100.43,-28.32l12.74 0 -4.32 60.89 -24.07 0c-37.76,0 -67.5,10.04 -89.23,30.09 -21.71,20.06 -33.92,48.98 -36.59,86.74l-14.5 204.64 -67.97 0zm515.72 11.33c-49.57,0 -87.17,-10.62 -112.81,-31.86 -25.64,-21.24 -37.62,-50.28 -35.96,-87.09l63.73 0c-0.09,14.63 6.36,28.43 19.38,41.42 13,12.98 36.26,19.48 69.78,19.48 30.21,0 53.77,-6.02 70.67,-18.06 16.9,-12.03 25.97,-26.79 27.21,-44.25 1.11,-15.58 -3.94,-27.74 -15.11,-36.47 -11.19,-8.73 -29.89,-14.51 -56.13,-17.35l-40.77 -4.24c-35.61,-3.78 -64.12,-14.51 -85.51,-32.22 -21.41,-17.7 -30.97,-42.6 -28.69,-74.71 2.58,-36.34 18.04,-64.67 46.38,-84.96 28.34,-20.3 63.76,-30.45 106.25,-30.45 42.49,0 76.27,9.44 101.37,28.32 25.1,18.89 36.78,46.97 35.1,84.26l-63.73 0c0.6,-15.11 -5.45,-27.97 -18.15,-38.59 -12.7,-10.63 -32.27,-15.93 -58.71,-15.93 -26.44,0 -46.89,5.42 -61.35,16.28 -14.45,10.86 -22.27,24.55 -23.44,41.07 -1.01,14.16 3.04,25.5 12.11,34 9.07,8.49 24.62,13.92 46.63,16.28l40.78 4.25c40.29,4.24 72.07,15.46 95.32,33.63 23.26,18.18 33.73,43.78 31.38,76.83 -1.67,23.6 -9.88,44.48 -24.62,62.66 -14.75,18.18 -34.28,32.34 -58.6,42.49 -24.32,10.15 -51.82,15.22 -82.51,15.22zm462.81 -1.41c-42.97,0 -75.83,-10.75 -98.62,-32.22 -22.8,-21.48 -32.81,-51.81 -30.03,-91 2.85,-40.12 18.45,-70.45 46.81,-90.99 28.37,-20.53 67.09,-30.8 116.18,-30.8l95.59 0 0.66 -9.21c3.72,-52.39 -20.87,-78.59 -73.74,-78.59 -21.71,0 -44.4,0.47 -68.07,1.41 -23.67,0.95 -43.33,1.89 -58.98,2.84l4.21 -59.48c15.2,-1.41 32.16,-2.48 50.86,-3.19 18.7,-0.7 36.54,-1.06 53.54,-1.06 58.07,0 99.67,10.63 124.83,31.86 25.18,21.24 35.88,58.31 32.14,111.17l-16.97 239.34 -53.81 0 5.32 -75.06c-21.01,56.65 -64.33,84.97 -129.94,84.97zm17.97 -53.82c16.06,0 31.61,-2.95 46.66,-8.85 15.04,-5.9 27.9,-15.81 38.57,-29.74 10.66,-13.92 17.34,-33.16 20.01,-57.71l3.12 -43.89 -98.43 0c-27.38,0 -48.85,6.6 -64.42,19.82 -15.58,13.21 -24.09,30.21 -25.57,50.98 -1.47,20.77 4.65,37.53 18.39,50.28 13.73,12.74 34.29,19.12 61.66,19.12zm90.67 -409.98c-15.58,0 -28.23,-2.95 -37.96,-8.85 -9.74,-5.9 -18.88,-11.8 -27.44,-17.7 -8.55,-5.9 -18.96,-8.86 -31.23,-8.86 -9.92,0 -19.18,2.49 -27.79,7.44 -8.61,4.95 -16.51,11.69 -23.73,20.18l-8.11 -45.32c7.72,-8.97 17.1,-16.52 28.15,-22.66 11.06,-6.13 23.43,-9.2 37.12,-9.2 15.57,0 28.22,2.95 37.96,8.85 9.73,5.9 18.99,11.8 27.77,17.7 8.79,5.9 19.09,8.86 30.88,8.86 9.92,0 19.3,-2.49 28.14,-7.44 8.85,-4.95 16.87,-11.69 24.09,-20.18l8.11 45.32c-7.72,8.97 -17.22,16.52 -28.51,22.66 -11.29,6.13 -23.78,9.2 -37.46,9.2zm470 466.63c-33.05,0 -61.68,-5.66 -85.9,-16.99 -24.21,-11.34 -44.27,-26.32 -60.18,-44.96 -15.9,-18.65 -27.41,-39.54 -34.51,-62.67 -7.09,-23.13 -9.78,-46.73 -8.07,-70.81l0.9 -12.74c1.71,-24.07 7.87,-47.79 18.5,-71.16 10.63,-23.37 25.33,-44.37 44.11,-63.02 18.8,-18.65 41.09,-33.52 66.9,-44.61 25.8,-11.09 54.75,-16.64 86.86,-16.64 32.1,0 60.25,5.55 84.49,16.64 24.23,11.1 44.42,25.97 60.56,44.61 16.15,18.65 27.87,39.65 35.19,63.02 7.31,23.37 10.12,47.09 8.41,71.16l-0.9 12.74c-1.71,24.08 -7.75,47.68 -18.12,70.81 -10.38,23.13 -24.83,44.02 -43.4,62.67 -18.55,18.65 -40.73,33.63 -66.56,44.96 -25.82,11.33 -55.25,16.99 -88.29,16.99zm4.31 -60.89c28.31,0 52.95,-6.25 73.91,-18.77 20.94,-12.5 37.48,-29.38 49.61,-50.63 12.12,-21.24 19.13,-45.08 21,-71.52 1.91,-26.91 -1.81,-50.98 -11.18,-72.22 -9.35,-21.24 -23.62,-38 -42.81,-50.28 -19.2,-12.27 -42.72,-18.41 -70.56,-18.41 -27.39,0 -51.66,6.13 -72.83,18.41 -21.17,12.27 -37.93,29.03 -50.3,50.28 -12.36,21.24 -19.5,45.31 -21.4,72.22 -1.88,26.44 1.75,50.28 10.86,71.52 9.13,21.24 23.27,38.12 42.44,50.63 19.18,12.51 42.94,18.77 71.26,18.77zm419.25 -106.22l25.69 -362.54 69.39 0 -25.69 362.54 -69.39 0zm-17.32 154.37l6.12 -86.39 82.14 0 -6.12 86.39 -82.14 0z"/>
   <path class="fil1" d="M1846.11 2537.77c30.06,-428.85 59.39,-858.57 90.82,-1287.17l528.41 0 -91.16 1287.17 -528.07 0zm-546.88 0l812.74 -2537.77 -557.78 0 -672.23 2098.8 -64.82 0 -282.94 -1369.68 -534.21 0 418.01 1808.65 881.22 0zm3653.91 46.2c-195.82,0 -350.11,-50.61 -462.86,-151.82 -112.74,-101.21 -162.57,-244.23 -149.47,-429.06 9.36,-132.01 51.15,-240.38 125.36,-325.09 74.22,-84.71 174.36,-147.42 300.47,-188.13 126.1,-40.7 269.47,-61.05 430.09,-61.05l326.74 0 0.47 -6.6c13.05,-184.84 -72.38,-259.24 -257.21,-259.24 -48.41,0 -112.39,-1.05 -191.76,-0.95l-1263.44 1.67 131.44 -435.35 1288.64 0.02c500.92,0 840.51,130.5 800.12,700.46l-78.6 1108.95 -419.16 0 24.1 -339.95c-48.5,125.42 -123.48,221.13 -224.98,287.14 -101.49,66.01 -228.14,99.02 -379.97,99.02zm184.39 -366.35c85.8,0 162.34,-24.2 229.58,-72.61 67.24,-48.41 108.99,-140.82 125.25,-277.24l10.3 -145.22 -330.04 0c-92.41,0 -165.01,23.1 -217.8,69.3 -52.78,46.21 -81.82,106.73 -87.12,181.53 -5.14,72.61 15.43,131.46 61.74,176.57 46.31,45.11 115.66,67.66 208.09,67.66zm-2107.56 320.15l-413.09 -1808.65 544.57 0 289.09 1369.68 75.9 0 258.57 -848.19 508.27 0 -425 1287.16 -838.31 0zm-1086.55 -1374.37c10.72,-144.77 21.7,-289.52 33.05,-434.28l525.91 0 -30.78 434.28 -528.17 0z"/>
  </g>
 </g>
</svg>
