<?xml version="1.0" encoding="UTF-8" standalone="no"?>
<svg
   xmlns:dc="http://purl.org/dc/elements/1.1/"
   xmlns:cc="http://creativecommons.org/ns#"
   xmlns:rdf="http://www.w3.org/1999/02/22-rdf-syntax-ns#"
   xmlns:svg="http://www.w3.org/2000/svg"
   xmlns="http://www.w3.org/2000/svg"
   xmlns:sodipodi="http://sodipodi.sourceforge.net/DTD/sodipodi-0.dtd"
   xmlns:inkscape="http://www.inkscape.org/namespaces/inkscape"
   width="615"
   height="150"
   viewBox="45 275 615 150"
   version="1.1"
   id="svg11"
   sodipodi:docname="betano-logo-2.svg"
   style="fill:none"
   inkscape:version="0.92.0 r15299"
   inkscape:export-filename="C:\Users\suitedoalex\sites\betano-logo-0.png"
   inkscape:export-xdpi="561.73712"
   inkscape:export-ydpi="561.73712">
  <metadata
     id="metadata15">
    <rdf:RDF>
      <cc:Work
         rdf:about="">
        <dc:format>image/svg+xml</dc:format>
        <dc:type
           rdf:resource="http://purl.org/dc/dcmitype/StillImage" />
        <dc:title></dc:title>
      </cc:Work>
    </rdf:RDF>
  </metadata>
  <sodipodi:namedview
     pagecolor="#ffffff"
     bordercolor="#666666"
     borderopacity="1"
     objecttolerance="10"
     gridtolerance="10"
     guidetolerance="10"
     inkscape:pageopacity="0"
     inkscape:pageshadow="2"
     inkscape:window-width="1920"
     inkscape:window-height="1017"
     id="namedview13"
     showgrid="false"
     inkscape:zoom="0.42708333"
     inkscape:cx="548.5529"
     inkscape:cy="51.539681"
     inkscape:window-x="-8"
     inkscape:window-y="-8"
     inkscape:window-maximized="1"
     inkscape:current-layer="svg11" />
  <g
     clip-path="url(#clip0_180_100769)"
     id="g4"
     transform="matrix(1.2624054,0,0,1.2624054,47.022704,259.10681)"
     style="fill:#ff3c00;fill-opacity:1"
     inkscape:export-filename="C:\Users\suitedoalex\sites\betano-logo-3.png"
     inkscape:export-xdpi="65.556297"
     inkscape:export-ydpi="65.556297">
    <path
       d="m 160.306,42.612 c -26.796,0 -46.166,22.168 -46.166,46.284 0,20.82 14.555,33.104 33.821,33.104 19.267,0 31.237,-11.92 35,-26.6 -5.178,3.7 -14.069,7.876 -24.106,7.876 -8.582,0 -18.873,-3.652 -19.878,-14.944 21.554,-2.792 39.12,-9.66 48.675,-16.86 0.148,-1.2 0.305,-2.944 0.305,-5.192 0,-12.132 -7.633,-23.668 -27.647,-23.668 z m 3.163,30.556 h -23.487 c 2.111,-10.784 9.784,-18.724 17.313,-18.724 5.117,0 7.525,2.696 7.525,9.288 0,2.996 -0.45,6.14 -1.351,9.436 z M 436.927,42.612 c -27.55,0 -47.113,21.268 -47.113,48.532 0,19.92 15.656,30.856 35.074,30.856 C 452.435,122 472,100.732 472,73.468 472,53.544 456.347,42.612 436.927,42.612 Z m -11.138,67.252 c -6.321,0 -9.783,-5.092 -9.783,-14.68 0,-19.024 7.672,-40.444 20.02,-40.444 6.325,0 9.787,5.092 9.787,14.68 0,19.024 -7.833,40.444 -20.024,40.444 z M 388.748,61.932 c 0,2.396 -0.237,5.072 -0.808,7.94 l -9.876,50.628 h -24.552 l 8.715,-44.64 c 0.45,-2.244 0.63,-4.192 0.63,-5.992 0,-7.04 -3.758,-10.184 -10.535,-10.184 -2.709,0 -6.07,0.868 -8.22,1.796 l -11.513,59.016 h -24.54 l 14.913,-76.392 h 24.54 l -2.709,13.78 c 3.984,-6.34 12.855,-15.28 24.404,-15.28 10.684,0 19.559,6.44 19.559,19.324 z m -78.524,4.976 c 0,-13.78 -12.067,-24.296 -28.958,-24.296 -21.019,0 -31.992,13.76 -35.228,26.6 6.588,-4.78 15.978,-7.876 24.106,-7.876 7.577,0 15.09,2.456 15.09,10.036 0,0.748 0,1.648 -0.149,2.844 -19.363,0.776 -47.267,11.084 -47.267,32.356 0,8.836 6.423,15.428 16.359,15.428 9.937,0 19.162,-6.74 24.585,-15.28 l -2.685,13.78 h 24.536 l 8.956,-45.956 c 0.45,-2.696 0.659,-5.244 0.659,-7.64 z m -30.755,36.22 c -3.01,1.348 -6.877,2.244 -9.739,2.244 -6.175,0 -9.205,-3.38 -9.205,-7.876 0,-9.488 11.295,-15.504 22.208,-11.072 l -3.264,16.7 z m -55.174,0.148 c 3.268,0 6.448,-0.924 10.58,-4.024 -3.787,12.852 -14.387,22.748 -25.75,22.748 -13.948,0 -18.354,-11.672 -15.448,-26.6 l 7.388,-37.808 h -10.029 l 2.633,-13.48 h 10.057 l 2.766,-14.396 25.272,-3.536 -3.534,17.932 h 21.04 c -1.576,7.84 -6.48,13.48 -16.53,13.48 h -7.142 l -7.228,37.012 c -1.117,5.672 1.954,8.676 5.921,8.676 z M 110.237,82.54 c 0,20.52 -27.7562,37.964 -74.0992,37.964 H 8 L 27.2261,22 h 61.7745 c 17.4134,0 26.7394,3.576 26.7394,14.384 0,12.944 -20.7782,27.204 -53.4701,33.088 L 80.1009,39.94 52.8516,39.872 40.9896,76.236 59.7774,73.608 35.8926,113.176 92.2003,66.608 c 10.9737,0 18.0327,6.34 18.0327,15.932 z"
       id="path2"
       inkscape:connector-curvature="0"
       style="fill:#ff3c00;fill-opacity:1" />
  </g>
  <defs
     id="defs9">
    <clipPath
       id="clip0_180_100769">
      <rect
         width="464"
         height="100"
         transform="translate(8,22)"
         id="rect6"
         x="0"
         y="0"
         style="fill:#ffffff" />
    </clipPath>
    <clipPath
       id="clip0_180_100769-2">
      <rect
         width="464"
         height="100"
         transform="translate(8,22)"
         id="rect6-1"
         x="0"
         y="0"
         style="fill:#ffffff" />
    </clipPath>
  </defs>
</svg>
