<?xml version="1.0" encoding="UTF-8" standalone="no"?>
<svg
   xmlns:dc="http://purl.org/dc/elements/1.1/"
   xmlns:cc="http://creativecommons.org/ns#"
   xmlns:rdf="http://www.w3.org/1999/02/22-rdf-syntax-ns#"
   xmlns:svg="http://www.w3.org/2000/svg"
   xmlns="http://www.w3.org/2000/svg"
   xmlns:sodipodi="http://sodipodi.sourceforge.net/DTD/sodipodi-0.dtd"
   xmlns:inkscape="http://www.inkscape.org/namespaces/inkscape"
   viewBox="45 290 620 130"
   version="1.1"
   id="svg16"
   sodipodi:docname="superbet-logo.svg"
   width="620"
   height="130"
   style="fill:currentColor"
   inkscape:version="0.92.0 r15299"
   inkscape:export-filename="C:\Users\suitedoalex\sites\superbet-logo-0.png"
   inkscape:export-xdpi="561.73712"
   inkscape:export-ydpi="561.73712">
  <metadata
     id="metadata22">
    <rdf:RDF>
      <cc:Work
         rdf:about="">
        <dc:format>image/svg+xml</dc:format>
        <dc:type
           rdf:resource="http://purl.org/dc/dcmitype/StillImage" />
        <dc:title></dc:title>
      </cc:Work>
    </rdf:RDF>
  </metadata>
  <defs
     id="defs20" />
  <sodipodi:namedview
     pagecolor="#ffffff"
     bordercolor="#666666"
     borderopacity="1"
     objecttolerance="10"
     gridtolerance="10"
     guidetolerance="10"
     inkscape:pageopacity="0"
     inkscape:pageshadow="2"
     inkscape:window-width="1920"
     inkscape:window-height="1017"
     id="namedview18"
     showgrid="false"
     inkscape:zoom="0.32436709"
     inkscape:cx="177.45105"
     inkscape:cy="756.78513"
     inkscape:window-x="-8"
     inkscape:window-y="-8"
     inkscape:window-maximized="1"
     inkscape:current-layer="svg16" />
  <path
     d="m 104.56269,329.8877 c -0.48604,-5.68253 -2.98755,-9.66114 -10.657214,-10.83387 -7.319367,-1.1296 -10.795718,1.23393 -11.400317,5.00187 -0.694531,4.33612 2.204709,6.45214 9.764574,8.78449 3.205876,0.99815 6.415523,1.98683 9.628937,2.96677 19.03767,5.81447 25.11157,13.63685 23.371,26.95696 -1.91327,14.87705 -15.53881,24.99694 -40.101281,21.27485 -24.433134,-3.75565 -36.739543,-15.66287 -32.08551,-34.30499 7.699849,1.34351 15.406621,2.63537 23.119502,3.87481 -1.550977,5.83219 0.80837,10.92833 12.167699,12.67267 8.728075,1.32692 12.81781,-0.78431 13.46223,-5.24358 0.56372,-3.89215 -1.65196,-6.18966 -8.253756,-8.23377 -3.165906,-0.98416 -6.32808,-1.97699 -9.486445,-2.97775 -19.200226,-6.07087 -26.835091,-15.11456 -24.42827,-28.87426 2.312288,-13.12445 14.257061,-23.24471 37.322702,-19.67345 21.815569,3.32171 32.058379,14.49295 30.181689,31.64597 -7.53995,-0.96202 -15.07501,-1.9742 -22.60554,-3.03672 z"
     id="path2"
     inkscape:connector-curvature="0"
     style="fill:#fa0401;stroke-width:3.77073169;fill-opacity:1"
     inkscape:export-filename="C:\Users\suitedoalex\sites\superbet-logo-2.png"
     inkscape:export-xdpi="112.79414"
     inkscape:export-ydpi="112.79414" />
  <path
     d="m 132.96875,356.5343 c 2.02827,-15.90457 4.05655,-31.80846 6.08483,-47.71333 7.54222,0.96202 15.08971,1.87348 22.64135,2.73366 -1.77488,15.5853 -3.54939,31.17162 -5.32427,46.75681 -1.06712,9.30164 2.6003,14.38987 11.23452,15.31332 8.63535,0.9144 13.28843,-3.2877 14.20321,-12.6048 1.54562,-15.61008 3.09125,-31.21977 4.63687,-46.82993 7.56032,0.74838 15.12478,1.44665 22.69226,2.09344 -1.365,15.97508 -2.73001,31.95031 -4.09463,47.92502 -1.78356,21.52145 -15.58481,32.76389 -39.65264,30.22656 -24.0633,-2.58823 -35.20958,-16.48715 -32.4215,-37.90075 z"
     id="path4"
     inkscape:connector-curvature="0"
     style="fill:#fa0401;stroke-width:3.77073169;fill-opacity:1"
     inkscape:export-filename="C:\Users\suitedoalex\sites\superbet-logo-2.png"
     inkscape:export-xdpi="112.79414"
     inkscape:export-ydpi="112.79414" />
  <path
     d="m 213.2167,397.24877 c 2.11538,-26.70244 4.23076,-53.40487 6.34652,-80.10753 11.97358,0.94894 23.9547,1.7705 35.94148,2.46402 18.74695,1.0808 31.21186,12.26788 30.57385,29.84195 -0.63273,17.4351 -14.3778,27.83855 -33.84571,26.71902 -4.5558,-0.26357 -9.11047,-0.54487 -13.66438,-0.84426 -0.51772,7.88422 -1.03582,15.76769 -1.55392,23.65191 -7.9355,-0.52149 -15.86799,-1.09653 -23.79784,-1.72511 z m 26.61043,-41.0791 c 3.63461,0.23906 7.26997,0.46681 10.90571,0.6825 7.00037,0.41365 10.86612,-2.98001 11.15684,-8.52072 0.28394,-5.43061 -3.15798,-9.30655 -10.42607,-9.73679 -3.48038,-0.20739 -6.95964,-0.42571 -10.43889,-0.65422 -0.39932,6.07616 -0.79864,12.15307 -1.19759,18.22923 z"
     id="path6"
     inkscape:connector-curvature="0"
     style="fill:#fa0401;stroke-width:3.77073169;fill-opacity:1"
     inkscape:export-filename="C:\Users\suitedoalex\sites\superbet-logo-2.png"
     inkscape:export-xdpi="112.79414"
     inkscape:export-ydpi="112.79414" />
  <path
     d="m 291.34061,401.70578 c 0.93589,-26.76994 1.87216,-53.53987 2.80806,-80.30958 19.61987,0.68609 39.24917,1.03115 58.87809,1.03454 -0.001,6.55195 -0.003,13.10397 -0.004,19.656 -12.18022,-0.002 -24.36081,-0.13424 -36.53914,-0.39631 -0.0773,3.58333 -0.15423,7.16703 -0.23153,10.75074 10.40307,0.22398 20.80728,0.35331 31.21186,0.38876 -0.0215,6.35934 -0.043,12.71868 -0.0649,19.07802 -10.51959,-0.0377 -21.03917,-0.16667 -31.55688,-0.39329 -0.0807,3.73755 -0.16101,7.47547 -0.24132,11.21302 12.63044,0.27112 25.26315,0.40687 37.89585,0.40573 7.6e-4,6.55203 0.001,13.10405 0.002,19.65607 -20.72244,0.002 -41.44525,-0.35935 -62.15825,-1.0837 z"
     id="path8"
     inkscape:connector-curvature="0"
     style="fill:#fa0401;stroke-width:3.77073169;fill-opacity:1"
     inkscape:export-filename="C:\Users\suitedoalex\sites\superbet-logo-2.png"
     inkscape:export-xdpi="112.79414"
     inkscape:export-ydpi="112.79414" />
  <path
     d="m 435.61446,380.51162 c 0.31297,6.65987 0.62594,13.32087 0.93514,19.98111 -1.91553,0.66968 -4.69833,1.14291 -7.37254,1.25641 -14.8284,0.63348 -27.07347,-2.61463 -35.70732,-22.88834 -0.33748,-0.76357 -0.67496,-1.52677 -1.01206,-2.28997 -2.23718,0.0498 -4.47473,0.0958 -6.71266,0.13763 0.1595,8.59313 0.31863,17.18625 0.47813,25.77937 -7.94719,0.14743 -15.89514,0.2417 -23.84347,0.28205 -0.13687,-26.78577 -0.273,-53.57154 -0.40987,-80.35761 12.42795,-0.0634 24.85477,-0.26358 37.27933,-0.60072 18.88534,-0.51489 32.31178,8.29422 33.1979,26.55308 0.5807,12.3548 -5.48717,20.41361 -16.8744,23.71752 5.47737,9.0622 11.40307,9.05315 16.20698,8.83671 1.44042,-0.0648 2.87707,-0.24698 3.83484,-0.40724 z m -50.53158,-39.52518 c 0.10785,5.81899 0.21569,11.63723 0.32353,17.45622 4.23076,-0.0784 8.46152,-0.17232 12.69191,-0.28167 7.00187,-0.18477 10.32577,-3.88725 10.15646,-9.08482 -0.16591,-5.08785 -3.68664,-8.54938 -10.96038,-8.35972 -4.07013,0.10445 -8.14064,0.19457 -12.21152,0.26999 z"
     id="path10"
     inkscape:connector-curvature="0"
     style="fill:#fa0401;stroke-width:3.77073169;fill-opacity:1"
     inkscape:export-filename="C:\Users\suitedoalex\sites\superbet-logo-2.png"
     inkscape:export-xdpi="112.79414"
     inkscape:export-ydpi="112.79414" />
  <path
     d="m 444.5888,400.44522 c -1.37632,-26.7507 -2.75641,-53.5014 -4.13272,-80.25226 11.99092,-0.61809 23.97431,-1.36334 35.95392,-2.23615 19.09122,-1.40803 29.58517,6.15628 30.78803,19.18424 0.85973,9.44228 -5.22246,16.03126 -12.30013,18.58178 9.80013,1.74661 16.7232,6.67231 17.65834,16.80653 1.38763,14.83406 -8.54825,23.94377 -27.63947,25.37703 -13.43511,0.99924 -26.87777,1.84577 -40.32797,2.53883 z m 20.66361,-49.84756 c 3.81975,-0.2485 7.6395,-0.50943 11.45925,-0.78319 5.67118,-0.40761 8.27676,-3.63083 7.911,-8.35481 -0.36576,-4.72698 -3.39743,-7.38754 -9.01205,-6.98377 -3.78204,0.2715 -7.56786,0.53017 -11.35367,0.77602 0.33182,5.11537 0.66364,10.23037 0.99547,15.34575 z m 2.08521,32.07573 c 3.84992,-0.25 7.70361,-0.51358 11.54975,-0.78884 6.62141,-0.47587 9.7662,-3.62858 9.37027,-8.69795 -0.39592,-5.07503 -3.95549,-7.68777 -10.50903,-7.21756 -3.81221,0.273 -7.62819,0.53356 -11.44417,0.78205 0.34314,5.30769 0.69005,10.61499 1.03318,15.9223 z"
     id="path12"
     inkscape:connector-curvature="0"
     style="fill:#fa0401;stroke-width:3.77073169;fill-opacity:1"
     inkscape:export-filename="C:\Users\suitedoalex\sites\superbet-logo-2.png"
     inkscape:export-xdpi="112.79414"
     inkscape:export-ydpi="112.79414" />
  <path
     d="m 522.2885,394.72691 c -2.55279,-26.66473 -5.1018,-53.32909 -7.65459,-79.9937 19.37025,-1.85339 38.7141,-4.04121 58.02779,-6.56394 0.84842,6.4964 1.69683,12.9939 2.54525,19.49031 -11.90798,1.5555 -23.83103,2.98548 -35.76162,4.28962 0.38838,3.56327 0.77677,7.12585 1.16892,10.6892 10.3582,-1.13198 20.70886,-2.35822 31.04821,-3.67873 0.80693,6.30806 1.6101,12.61611 2.41704,18.92417 -10.45624,1.33484 -20.92002,2.57503 -31.39512,3.71983 0.40724,3.71605 0.81448,7.43324 1.21795,11.14892 12.57539,-1.37443 25.14324,-2.88536 37.69224,-4.5328 0.85595,6.49622 1.70814,12.99244 2.56032,19.48903 -20.59196,2.70248 -41.21787,5.04185 -61.86639,7.01809 z m 90.24869,-10.97736 c -2.95625,-20.01693 -5.91251,-40.03386 -8.86876,-60.05097 -7.03242,1.03879 -14.0686,2.03332 -21.10856,2.9843 -0.87858,-6.49323 -1.75339,-12.98625 -2.6282,-19.47926 21.57236,-2.91296 43.09947,-6.24391 64.57755,-9.99311 1.12745,6.45417 2.25113,12.90879 3.37858,19.36338 -7.12668,1.24389 -14.25714,2.44212 -21.39513,3.59543 3.22774,19.97549 6.45172,39.95019 9.67947,59.92602 -7.87329,1.27186 -15.75035,2.48943 -23.63495,3.65421 z"
     id="path14"
     inkscape:connector-curvature="0"
     style="fill:#fa0401;stroke-width:3.77073169;fill-opacity:1"
     inkscape:export-filename="C:\Users\suitedoalex\sites\superbet-logo-2.png"
     inkscape:export-xdpi="112.79414"
     inkscape:export-ydpi="112.79414" />
</svg>
