<?xml version="1.0" encoding="UTF-8"?>
<svg xmlns="http://www.w3.org/2000/svg" viewBox="0 0 1051 251" role="img" aria-label="VemBetar logo" shape-rendering="geometricPrecision">
  <title>VemBetar logo</title>
  <g id="logo-mark">
    <circle cx="127.77" cy="125.67" r="96.74" fill="#14715C"/>
    <path d="M 119.00 28.00 L 118.00 29.00 L 111.00 29.00 L 110.00 30.00 L 103.00 31.00 L 99.00 33.00 L 96.00 33.00 L 79.00 41.00 L 77.00 43.00 L 74.00 44.00 L 67.00 50.00 L 66.00 50.00 L 52.00 64.00 L 52.00 65.00 L 49.00 68.00 L 49.00 69.00 L 46.00 72.00 L 45.00 75.00 L 43.00 77.00 L 35.00 94.00 L 35.00 97.00 L 34.00 98.00 L 33.00 104.00 L 32.00 105.00 L 32.00 108.00 L 31.00 109.00 L 31.00 116.00 L 30.00 117.00 L 30.00 135.00 L 31.00 136.00 L 31.00 143.00 L 32.00 144.00 L 33.00 151.00 L 35.00 155.00 L 35.00 158.00 L 43.00 175.00 L 45.00 177.00 L 46.00 180.00 L 52.00 187.00 L 52.00 188.00 L 66.00 202.00 L 67.00 202.00 L 70.00 205.00 L 71.00 205.00 L 74.00 208.00 L 77.00 209.00 L 79.00 211.00 L 96.00 219.00 L 99.00 219.00 L 100.00 220.00 L 106.00 221.00 L 107.00 222.00 L 110.00 222.00 L 111.00 223.00 L 118.00 223.00 L 119.00 224.00 L 137.00 224.00 L 138.00 223.00 L 145.00 223.00 L 146.00 222.00 L 153.00 221.00 L 157.00 219.00 L 160.00 219.00 L 177.00 211.00 L 179.00 209.00 L 182.00 208.00 L 189.00 202.00 L 190.00 202.00 L 204.00 188.00 L 204.00 187.00 L 207.00 184.00 L 207.00 183.00 L 210.00 180.00 L 211.00 177.00 L 213.00 175.00 L 221.00 158.00 L 221.00 155.00 L 222.00 154.00 L 223.00 148.00 L 224.00 147.00 L 224.00 144.00 L 225.00 143.00 L 225.00 136.00 L 226.00 135.00 L 226.00 117.00 L 225.00 116.00 L 225.00 109.00 L 224.00 108.00 L 223.00 101.00 L 221.00 97.00 L 221.00 94.00 L 213.00 77.00 L 211.00 75.00 L 210.00 72.00 L 204.00 65.00 L 204.00 64.00 L 190.00 50.00 L 189.00 50.00 L 186.00 47.00 L 185.00 47.00 L 182.00 44.00 L 179.00 43.00 L 177.00 41.00 L 160.00 33.00 L 157.00 33.00 L 156.00 32.00 L 150.00 31.00 L 149.00 30.00 L 146.00 30.00 L 145.00 29.00 L 138.00 29.00 L 137.00 28.00 Z
M 128.00 28.00 L 129.00 29.00 L 141.00 29.00 L 142.00 30.00 L 147.00 30.00 L 148.00 31.00 L 151.00 31.00 L 152.00 32.00 L 155.00 32.00 L 156.00 33.00 L 164.00 35.00 L 176.00 41.00 L 181.00 45.00 L 184.00 46.00 L 188.00 50.00 L 189.00 50.00 L 204.00 65.00 L 204.00 66.00 L 207.00 69.00 L 207.00 70.00 L 211.00 75.00 L 212.00 78.00 L 214.00 80.00 L 214.00 82.00 L 217.00 86.00 L 217.00 88.00 L 219.00 91.00 L 219.00 93.00 L 221.00 97.00 L 221.00 100.00 L 223.00 104.00 L 223.00 109.00 L 224.00 110.00 L 224.00 116.00 L 225.00 117.00 L 225.00 135.00 L 224.00 136.00 L 223.00 147.00 L 222.00 148.00 L 222.00 151.00 L 221.00 152.00 L 219.00 160.00 L 210.00 178.00 L 205.00 184.00 L 205.00 185.00 L 200.00 190.00 L 200.00 191.00 L 187.00 203.00 L 186.00 203.00 L 183.00 206.00 L 177.00 209.00 L 175.00 211.00 L 167.00 215.00 L 165.00 215.00 L 162.00 217.00 L 160.00 217.00 L 153.00 220.00 L 149.00 220.00 L 148.00 221.00 L 144.00 221.00 L 143.00 222.00 L 137.00 222.00 L 136.00 223.00 L 120.00 223.00 L 119.00 222.00 L 112.00 222.00 L 111.00 221.00 L 107.00 221.00 L 106.00 220.00 L 99.00 219.00 L 93.00 216.00 L 91.00 216.00 L 79.00 210.00 L 74.00 206.00 L 71.00 205.00 L 53.00 188.00 L 53.00 187.00 L 49.00 183.00 L 49.00 182.00 L 45.00 177.00 L 44.00 174.00 L 42.00 172.00 L 38.00 164.00 L 38.00 162.00 L 37.00 161.00 L 37.00 159.00 L 36.00 158.00 L 36.00 156.00 L 33.00 149.00 L 33.00 146.00 L 32.00 145.00 L 32.00 139.00 L 31.00 138.00 L 31.00 113.00 L 32.00 112.00 L 33.00 102.00 L 34.00 101.00 L 37.00 90.00 L 40.00 85.00 L 41.00 81.00 L 43.00 79.00 L 44.00 76.00 L 46.00 74.00 L 50.00 67.00 L 54.00 63.00 L 54.00 62.00 L 56.00 61.00 L 56.00 60.00 L 69.00 48.00 L 87.00 37.00 L 89.00 37.00 L 92.00 35.00 L 94.00 35.00 L 95.00 34.00 L 97.00 34.00 L 100.00 32.00 L 103.00 32.00 L 104.00 31.00 L 114.00 30.00 L 115.00 29.00 L 127.00 29.00 Z
M 92.00 66.00 L 92.00 185.00 L 143.00 185.00 L 144.00 184.00 L 148.00 184.00 L 149.00 183.00 L 151.00 183.00 L 157.00 180.00 L 165.00 173.00 L 170.00 163.00 L 170.00 144.00 L 166.00 136.00 L 161.00 131.00 L 155.00 128.00 L 143.00 139.00 L 142.00 139.00 L 131.00 149.00 L 130.00 149.00 L 126.00 153.00 L 125.00 153.00 L 119.00 159.00 L 118.00 159.00 L 114.00 163.00 L 113.00 163.00 L 107.00 158.00 L 107.00 108.00 L 109.00 107.00 L 115.00 110.00 L 117.00 112.00 L 122.00 114.00 L 125.00 117.00 L 125.00 130.00 L 129.00 130.00 L 130.00 129.00 L 133.00 129.00 L 134.00 128.00 L 137.00 128.00 L 141.00 126.00 L 144.00 126.00 L 145.00 125.00 L 151.00 124.00 L 159.00 120.00 L 162.00 117.00 L 163.00 117.00 L 163.00 116.00 L 167.00 112.00 L 169.00 108.00 L 169.00 105.00 L 170.00 104.00 L 170.00 89.00 L 166.00 80.00 L 162.00 76.00 L 162.00 75.00 L 161.00 75.00 L 158.00 72.00 L 150.00 68.00 L 148.00 68.00 L 147.00 67.00 L 143.00 67.00 L 142.00 66.00 Z" fill="#FFFFFF" fill-rule="evenodd" clip-rule="evenodd"/>
  </g>
  <path id="wordmark" d="M 607.00 76.00 L 607.00 79.00 L 606.00 80.00 L 606.00 86.00 L 605.00 87.00 L 605.00 92.00 L 604.00 93.00 L 604.00 99.00 L 603.00 100.00 L 603.00 105.00 L 602.00 106.00 L 602.00 112.00 L 601.00 113.00 L 601.00 117.00 L 600.00 118.00 L 600.00 125.00 L 599.00 126.00 L 599.00 130.00 L 598.00 131.00 L 598.00 137.00 L 597.00 138.00 L 597.00 143.00 L 596.00 144.00 L 596.00 150.00 L 595.00 151.00 L 595.00 155.00 L 594.00 156.00 L 594.00 162.00 L 593.00 163.00 L 593.00 168.00 L 592.00 169.00 L 592.00 173.00 L 643.00 173.00 L 644.00 172.00 L 648.00 172.00 L 649.00 171.00 L 652.00 171.00 L 653.00 170.00 L 655.00 170.00 L 659.00 168.00 L 661.00 166.00 L 665.00 164.00 L 670.00 159.00 L 670.00 158.00 L 674.00 153.00 L 674.00 151.00 L 676.00 147.00 L 676.00 137.00 L 672.00 129.00 L 673.00 127.00 L 671.00 128.00 L 668.00 125.00 L 665.00 124.00 L 664.00 123.00 L 664.00 121.00 L 668.00 119.00 L 676.00 111.00 L 677.00 109.00 L 677.00 107.00 L 679.00 103.00 L 679.00 93.00 L 678.00 92.00 L 677.00 87.00 L 675.00 85.00 L 675.00 84.00 L 669.00 79.00 L 667.00 79.00 L 663.00 77.00 L 659.00 77.00 L 658.00 76.00 Z
M 458.00 101.00 L 458.00 106.00 L 457.00 107.00 L 457.00 113.00 L 456.00 114.00 L 456.00 119.00 L 455.00 120.00 L 455.00 125.00 L 454.00 126.00 L 454.00 131.00 L 453.00 132.00 L 453.00 138.00 L 452.00 139.00 L 452.00 145.00 L 451.00 146.00 L 451.00 151.00 L 450.00 152.00 L 450.00 157.00 L 449.00 158.00 L 449.00 163.00 L 448.00 164.00 L 448.00 170.00 L 447.00 171.00 L 447.00 173.00 L 472.00 173.00 L 473.00 172.00 L 473.00 166.00 L 474.00 165.00 L 474.00 160.00 L 475.00 159.00 L 475.00 153.00 L 476.00 152.00 L 476.00 147.00 L 477.00 146.00 L 477.00 140.00 L 478.00 139.00 L 478.00 136.00 L 479.00 135.00 L 479.00 133.00 L 482.00 127.00 L 485.00 124.00 L 487.00 124.00 L 486.00 122.00 L 494.00 117.00 L 502.00 117.00 L 505.00 119.00 L 504.00 121.00 L 506.00 121.00 L 508.00 125.00 L 508.00 130.00 L 507.00 131.00 L 507.00 137.00 L 506.00 138.00 L 506.00 143.00 L 505.00 144.00 L 505.00 149.00 L 504.00 150.00 L 504.00 157.00 L 503.00 158.00 L 503.00 162.00 L 502.00 163.00 L 502.00 168.00 L 501.00 169.00 L 501.00 173.00 L 526.00 173.00 L 527.00 172.00 L 527.00 166.00 L 528.00 165.00 L 528.00 161.00 L 529.00 160.00 L 529.00 154.00 L 530.00 153.00 L 530.00 148.00 L 531.00 147.00 L 531.00 141.00 L 532.00 140.00 L 533.00 133.00 L 536.00 127.00 L 538.00 125.00 L 538.00 124.00 L 542.00 120.00 L 548.00 117.00 L 556.00 117.00 L 560.00 120.00 L 561.00 122.00 L 561.00 124.00 L 562.00 125.00 L 562.00 130.00 L 561.00 131.00 L 561.00 137.00 L 560.00 138.00 L 560.00 143.00 L 559.00 144.00 L 559.00 149.00 L 558.00 150.00 L 558.00 157.00 L 557.00 158.00 L 557.00 162.00 L 556.00 163.00 L 556.00 169.00 L 555.00 170.00 L 555.00 173.00 L 580.00 173.00 L 581.00 172.00 L 581.00 166.00 L 582.00 165.00 L 582.00 160.00 L 583.00 159.00 L 583.00 153.00 L 584.00 152.00 L 584.00 148.00 L 585.00 147.00 L 585.00 141.00 L 586.00 140.00 L 586.00 134.00 L 587.00 133.00 L 587.00 127.00 L 588.00 126.00 L 588.00 118.00 L 587.00 117.00 L 587.00 112.00 L 584.00 106.00 L 579.00 101.00 L 573.00 98.00 L 557.00 98.00 L 556.00 99.00 L 553.00 99.00 L 552.00 100.00 L 550.00 100.00 L 548.00 102.00 L 545.00 103.00 L 542.00 106.00 L 541.00 106.00 L 536.00 111.00 L 535.00 113.00 L 534.00 113.00 L 532.00 111.00 L 532.00 109.00 L 529.00 105.00 L 530.00 103.00 L 528.00 104.00 L 525.00 101.00 L 521.00 99.00 L 519.00 99.00 L 518.00 98.00 L 502.00 98.00 L 501.00 99.00 L 499.00 99.00 L 491.00 103.00 L 485.00 108.00 L 483.00 107.00 L 483.00 102.00 L 484.00 101.00 L 483.00 100.00 L 459.00 100.00 Z
M 853.00 116.00 L 853.00 117.00 L 851.00 119.00 L 848.00 125.00 L 847.00 130.00 L 845.00 133.00 L 845.00 141.00 L 844.00 142.00 L 844.00 146.00 L 845.00 147.00 L 845.00 153.00 L 846.00 154.00 L 847.00 159.00 L 849.00 163.00 L 851.00 165.00 L 851.00 166.00 L 856.00 170.00 L 855.00 172.00 L 857.00 171.00 L 861.00 173.00 L 863.00 175.00 L 874.00 175.00 L 875.00 176.00 L 876.00 175.00 L 882.00 175.00 L 883.00 174.00 L 885.00 174.00 L 886.00 173.00 L 888.00 173.00 L 892.00 171.00 L 894.00 169.00 L 898.00 167.00 L 902.00 163.00 L 903.00 163.00 L 904.00 164.00 L 903.00 166.00 L 903.00 172.00 L 901.00 173.00 L 928.00 173.00 L 928.00 168.00 L 929.00 167.00 L 929.00 162.00 L 930.00 161.00 L 930.00 156.00 L 931.00 155.00 L 932.00 142.00 L 933.00 141.00 L 933.00 136.00 L 934.00 135.00 L 934.00 130.00 L 935.00 129.00 L 935.00 123.00 L 936.00 122.00 L 936.00 116.00 L 937.00 115.00 L 937.00 110.00 L 938.00 109.00 L 938.00 104.00 L 939.00 103.00 L 939.00 100.00 L 914.00 100.00 L 913.00 101.00 L 913.00 107.00 L 912.00 108.00 L 910.00 108.00 L 907.00 105.00 L 907.00 104.00 L 906.00 104.00 L 903.00 101.00 L 901.00 100.00 L 899.00 100.00 L 898.00 99.00 L 896.00 99.00 L 895.00 98.00 L 889.00 98.00 L 888.00 97.00 L 887.00 98.00 L 879.00 98.00 L 878.00 99.00 L 873.00 100.00 L 871.00 102.00 L 869.00 102.00 L 867.00 104.00 L 863.00 106.00 Z
M 367.00 76.00 L 341.00 76.00 L 339.00 78.00 L 339.00 80.00 L 337.00 82.00 L 336.00 84.00 L 336.00 86.00 L 334.00 88.00 L 334.00 90.00 L 332.00 92.00 L 332.00 94.00 L 330.00 98.00 L 328.00 100.00 L 328.00 102.00 L 326.00 106.00 L 324.00 108.00 L 324.00 110.00 L 320.00 116.00 L 320.00 118.00 L 318.00 122.00 L 316.00 124.00 L 316.00 126.00 L 310.00 138.00 L 308.00 140.00 L 308.00 142.00 L 307.00 143.00 L 305.00 142.00 L 305.00 134.00 L 304.00 133.00 L 304.00 126.00 L 303.00 125.00 L 303.00 118.00 L 302.00 117.00 L 302.00 110.00 L 301.00 109.00 L 301.00 101.00 L 300.00 100.00 L 300.00 93.00 L 299.00 92.00 L 298.00 77.00 L 297.00 76.00 L 273.00 76.00 L 272.00 77.00 L 273.00 79.00 L 273.00 85.00 L 274.00 86.00 L 274.00 92.00 L 275.00 93.00 L 275.00 98.00 L 276.00 99.00 L 276.00 105.00 L 277.00 106.00 L 277.00 112.00 L 278.00 113.00 L 278.00 120.00 L 279.00 121.00 L 279.00 126.00 L 280.00 127.00 L 280.00 133.00 L 281.00 134.00 L 281.00 140.00 L 282.00 141.00 L 282.00 147.00 L 283.00 148.00 L 284.00 161.00 L 285.00 162.00 L 285.00 167.00 L 286.00 168.00 L 286.00 172.00 L 287.00 173.00 L 319.00 173.00 L 322.00 166.00 L 324.00 164.00 L 324.00 162.00 L 326.00 160.00 L 326.00 158.00 L 328.00 156.00 L 328.00 154.00 L 330.00 150.00 L 332.00 148.00 L 334.00 144.00 L 334.00 142.00 L 336.00 140.00 L 336.00 138.00 L 337.00 136.00 L 339.00 134.00 L 342.00 128.00 L 342.00 126.00 L 345.00 120.00 L 347.00 118.00 L 350.00 112.00 L 350.00 110.00 L 353.00 104.00 L 356.00 100.00 L 356.00 98.00 L 358.00 96.00 L 360.00 92.00 L 360.00 90.00 L 361.00 88.00 L 363.00 86.00 L 366.00 80.00 L 366.00 78.00 Z
M 432.00 104.00 L 429.00 103.00 L 425.00 100.00 L 423.00 100.00 L 422.00 99.00 L 419.00 99.00 L 418.00 98.00 L 397.00 98.00 L 396.00 99.00 L 393.00 99.00 L 392.00 100.00 L 387.00 101.00 L 381.00 104.00 L 376.00 108.00 L 375.00 108.00 L 366.00 117.00 L 365.00 120.00 L 363.00 122.00 L 360.00 128.00 L 360.00 130.00 L 359.00 131.00 L 359.00 134.00 L 358.00 135.00 L 358.00 152.00 L 359.00 153.00 L 359.00 155.00 L 362.00 161.00 L 365.00 164.00 L 365.00 165.00 L 375.00 172.00 L 377.00 172.00 L 378.00 173.00 L 380.00 173.00 L 381.00 174.00 L 383.00 174.00 L 384.00 175.00 L 407.00 175.00 L 408.00 174.00 L 411.00 174.00 L 412.00 173.00 L 417.00 172.00 L 427.00 167.00 L 433.00 162.00 L 435.00 163.00 L 435.00 160.00 L 433.00 158.00 L 427.00 155.00 L 420.00 150.00 L 418.00 150.00 L 415.00 153.00 L 411.00 155.00 L 409.00 155.00 L 408.00 156.00 L 405.00 156.00 L 404.00 157.00 L 395.00 157.00 L 394.00 156.00 L 391.00 156.00 L 387.00 154.00 L 385.00 152.00 L 385.00 151.00 L 383.00 150.00 L 381.00 146.00 L 381.00 144.00 L 382.00 143.00 L 442.00 143.00 L 443.00 141.00 L 443.00 138.00 L 444.00 137.00 L 444.00 123.00 L 443.00 122.00 L 443.00 119.00 L 439.00 111.00 Z
M 753.00 102.00 L 751.00 102.00 L 748.00 100.00 L 746.00 100.00 L 742.00 98.00 L 722.00 98.00 L 721.00 99.00 L 718.00 99.00 L 717.00 100.00 L 715.00 100.00 L 714.00 101.00 L 709.00 102.00 L 705.00 105.00 L 702.00 106.00 L 696.00 111.00 L 694.00 111.00 L 694.00 113.00 L 689.00 119.00 L 688.00 122.00 L 686.00 124.00 L 686.00 126.00 L 684.00 129.00 L 684.00 131.00 L 683.00 132.00 L 683.00 135.00 L 682.00 136.00 L 682.00 151.00 L 683.00 152.00 L 683.00 154.00 L 684.00 155.00 L 684.00 157.00 L 686.00 161.00 L 690.00 165.00 L 690.00 166.00 L 691.00 166.00 L 694.00 169.00 L 702.00 173.00 L 704.00 173.00 L 705.00 174.00 L 708.00 174.00 L 709.00 175.00 L 730.00 175.00 L 731.00 174.00 L 735.00 174.00 L 736.00 173.00 L 741.00 172.00 L 746.00 169.00 L 748.00 169.00 L 750.00 167.00 L 753.00 166.00 L 756.00 163.00 L 758.00 164.00 L 758.00 162.00 L 759.00 160.00 L 753.00 155.00 L 750.00 154.00 L 745.00 150.00 L 742.00 150.00 L 739.00 153.00 L 735.00 155.00 L 730.00 156.00 L 729.00 157.00 L 719.00 157.00 L 718.00 156.00 L 715.00 156.00 L 711.00 154.00 L 707.00 150.00 L 706.00 148.00 L 706.00 144.00 L 707.00 143.00 L 766.00 143.00 L 767.00 142.00 L 767.00 139.00 L 768.00 138.00 L 768.00 133.00 L 769.00 132.00 L 769.00 128.00 L 768.00 127.00 L 768.00 122.00 L 767.00 121.00 L 766.00 116.00 L 761.00 109.00 L 761.00 108.00 L 760.00 108.00 Z
M 828.00 76.00 L 803.00 76.00 L 802.00 78.00 L 802.00 83.00 L 801.00 84.00 L 801.00 89.00 L 800.00 90.00 L 800.00 96.00 L 798.00 100.00 L 777.00 100.00 L 776.00 101.00 L 776.00 104.00 L 775.00 105.00 L 775.00 110.00 L 774.00 111.00 L 774.00 116.00 L 773.00 117.00 L 774.00 119.00 L 791.00 119.00 L 792.00 118.00 L 794.00 118.00 L 796.00 120.00 L 796.00 122.00 L 795.00 123.00 L 795.00 128.00 L 794.00 129.00 L 794.00 134.00 L 793.00 135.00 L 793.00 140.00 L 792.00 141.00 L 792.00 147.00 L 791.00 148.00 L 791.00 153.00 L 790.00 154.00 L 790.00 160.00 L 789.00 161.00 L 789.00 166.00 L 788.00 167.00 L 788.00 169.00 L 786.00 170.00 L 788.00 173.00 L 813.00 173.00 L 814.00 172.00 L 815.00 159.00 L 816.00 158.00 L 816.00 153.00 L 817.00 152.00 L 817.00 146.00 L 818.00 145.00 L 818.00 141.00 L 819.00 140.00 L 819.00 134.00 L 820.00 133.00 L 820.00 128.00 L 821.00 127.00 L 821.00 122.00 L 823.00 119.00 L 839.00 119.00 L 840.00 118.00 L 843.00 118.00 L 845.00 119.00 L 846.00 118.00 L 846.00 116.00 L 847.00 115.00 L 847.00 109.00 L 848.00 108.00 L 848.00 102.00 L 849.00 101.00 L 848.00 100.00 L 826.00 100.00 L 825.00 99.00 L 825.00 95.00 L 826.00 94.00 L 826.00 89.00 L 827.00 88.00 L 827.00 83.00 L 828.00 82.00 L 828.00 78.00 L 829.00 77.00 Z
M 1020.00 105.00 L 1016.00 101.00 L 1012.00 99.00 L 1010.00 99.00 L 1009.00 98.00 L 996.00 98.00 L 995.00 99.00 L 992.00 99.00 L 986.00 102.00 L 979.00 108.00 L 978.00 108.00 L 978.00 109.00 L 976.00 111.00 L 975.00 111.00 L 974.00 110.00 L 974.00 108.00 L 975.00 107.00 L 975.00 100.00 L 951.00 100.00 L 950.00 101.00 L 950.00 104.00 L 949.00 105.00 L 949.00 111.00 L 948.00 112.00 L 948.00 117.00 L 947.00 118.00 L 947.00 124.00 L 946.00 125.00 L 946.00 130.00 L 945.00 131.00 L 945.00 136.00 L 944.00 137.00 L 944.00 143.00 L 943.00 144.00 L 943.00 149.00 L 942.00 150.00 L 942.00 155.00 L 941.00 156.00 L 941.00 162.00 L 940.00 163.00 L 940.00 168.00 L 939.00 169.00 L 939.00 173.00 L 964.00 173.00 L 965.00 172.00 L 965.00 164.00 L 966.00 163.00 L 966.00 158.00 L 967.00 157.00 L 967.00 152.00 L 968.00 151.00 L 968.00 146.00 L 969.00 145.00 L 969.00 140.00 L 970.00 139.00 L 971.00 132.00 L 974.00 126.00 L 981.00 119.00 L 983.00 118.00 L 985.00 118.00 L 986.00 117.00 L 992.00 117.00 L 994.00 118.00 L 998.00 123.00 L 998.00 133.00 L 1022.00 133.00 L 1024.00 129.00 L 1024.00 115.00 L 1023.00 114.00 L 1023.00 111.00 Z
M 897.00 115.00 L 901.00 117.00 L 906.00 122.00 L 908.00 126.00 L 908.00 139.00 L 904.00 147.00 L 902.00 148.00 L 902.00 149.00 L 895.00 155.00 L 889.00 158.00 L 880.00 158.00 L 879.00 157.00 L 877.00 157.00 L 870.00 150.00 L 870.00 148.00 L 869.00 147.00 L 869.00 144.00 L 868.00 143.00 L 868.00 138.00 L 869.00 137.00 L 869.00 133.00 L 871.00 129.00 L 873.00 127.00 L 873.00 126.00 L 875.00 124.00 L 877.00 124.00 L 878.00 123.00 L 877.00 121.00 L 881.00 118.00 L 887.00 115.00 Z
M 621.00 153.00 L 621.00 146.00 L 622.00 145.00 L 622.00 141.00 L 623.00 140.00 L 623.00 134.00 L 624.00 133.00 L 645.00 133.00 L 649.00 135.00 L 648.00 137.00 L 649.00 136.00 L 651.00 137.00 L 651.00 139.00 L 652.00 140.00 L 651.00 142.00 L 651.00 145.00 L 650.00 147.00 L 644.00 152.00 L 642.00 152.00 L 641.00 153.00 L 637.00 153.00 L 636.00 154.00 L 622.00 154.00 Z
M 627.00 115.00 L 628.00 102.00 L 629.00 101.00 L 629.00 96.00 L 630.00 95.00 L 649.00 95.00 L 652.00 97.00 L 651.00 99.00 L 652.00 98.00 L 654.00 99.00 L 655.00 101.00 L 655.00 105.00 L 654.00 106.00 L 654.00 108.00 L 651.00 112.00 L 649.00 111.00 L 649.00 113.00 L 647.00 115.00 L 644.00 115.00 L 643.00 116.00 L 628.00 116.00 Z
M 709.00 128.00 L 710.00 126.00 L 712.00 124.00 L 713.00 124.00 L 713.00 123.00 L 717.00 119.00 L 719.00 118.00 L 721.00 118.00 L 722.00 117.00 L 724.00 117.00 L 725.00 116.00 L 734.00 116.00 L 735.00 117.00 L 737.00 117.00 L 739.00 118.00 L 744.00 123.00 L 744.00 126.00 L 745.00 127.00 L 745.00 129.00 L 744.00 130.00 L 710.00 130.00 Z
M 385.00 128.00 L 388.00 123.00 L 390.00 124.00 L 389.00 123.00 L 390.00 121.00 L 391.00 121.00 L 393.00 119.00 L 397.00 117.00 L 400.00 117.00 L 401.00 116.00 L 410.00 116.00 L 411.00 117.00 L 413.00 117.00 L 415.00 118.00 L 419.00 122.00 L 420.00 124.00 L 420.00 129.00 L 419.00 130.00 L 386.00 130.00 Z" fill="#FFFFFF" fill-rule="evenodd" clip-rule="evenodd"/>
</svg>
